<?xml version="1.0" encoding="iso-8859-1"?>
<!-- Generator: Adobe Illustrator 16.0.0, SVG Export Plug-In . SVG Version: 6.00 Build 0)  -->
<!DOCTYPE svg PUBLIC "-//W3C//DTD SVG 1.1//EN" "http://www.w3.org/Graphics/SVG/1.1/DTD/svg11.dtd">
<svg version="1.1" id="Capa_1" xmlns="http://www.w3.org/2000/svg" xmlns:xlink="http://www.w3.org/1999/xlink" x="0px" y="0px"
	 width="379.757px" height="379.757px" viewBox="0 0 379.757 379.757" style="enable-background:new 0 0 379.757 379.757;"
	 xml:space="preserve">
<g>
	<path d="M320.801,80.471V69.01h30.415V50.099h-30.415v-7.45h-29.668V0H89.37v41.907H58.954v7.453H28.541v18.916h30.413v11.458
		H89.37v25.558H58.954v7.453H28.541v18.911h30.413v11.458H89.37v29.335H58.954v7.451H28.541v18.919h30.413v11.458H89.37v27.448
		H58.954v7.452H28.541v18.911h30.413v11.458H89.37v24.483H58.954v7.447H28.541v18.91h30.413v11.464H89.37v41.905h201.75v-41.172
		h29.671v-11.458h30.417v-18.911h-30.417v-7.453H291.12V276.28h29.671v-11.458h30.417v-18.911h-30.417v-7.452H291.12v-27.442h29.671
		v-11.456h30.417v-18.914h-30.417v-7.453H291.12v-29.332h29.671v-11.459h30.417v-18.911h-30.417v-7.453H291.12V80.482h29.681V80.471
		z M246.622,50.43c-8.601,0-15.571-6.975-15.571-15.576c0-8.602,6.971-15.579,15.571-15.579c8.602,0,15.578,6.977,15.578,15.579
		C262.2,43.456,255.224,50.43,246.622,50.43z"/>
</g>
<g>
</g>
<g>
</g>
<g>
</g>
<g>
</g>
<g>
</g>
<g>
</g>
<g>
</g>
<g>
</g>
<g>
</g>
<g>
</g>
<g>
</g>
<g>
</g>
<g>
</g>
<g>
</g>
<g>
</g>
</svg>
